<mxfile host="app.diagrams.net" modified="2021-11-10T11:42:42.594Z" agent="5.0 (Macintosh; Intel Mac OS X 10_15_7) AppleWebKit/537.36 (KHTML, like Gecko) Chrome/95.0.4638.69 Safari/537.36" etag="aRjWMGyYXe9eFKPXfex-" version="15.2.9" type="github">
  <diagram id="Gp5oIp7yYED9zAVJJLGE" name="Page-1">
    <mxGraphModel dx="2125" dy="808" grid="1" gridSize="10" guides="1" tooltips="1" connect="1" arrows="1" fold="1" page="1" pageScale="1" pageWidth="827" pageHeight="1169" math="0" shadow="0">
      <root>
        <mxCell id="0" />
        <mxCell id="1" parent="0" />
        <mxCell id="6two8OKGhvE6AskP43UC-3" value="机构" style="shape=umlLifeline;perimeter=lifelinePerimeter;whiteSpace=wrap;html=1;container=1;collapsible=0;recursiveResize=0;outlineConnect=0;fillColor=#fff2cc;strokeColor=#d6b656;" vertex="1" parent="1">
          <mxGeometry x="120" y="100" width="100" height="1540" as="geometry" />
        </mxCell>
        <mxCell id="6two8OKGhvE6AskP43UC-4" value="学校" style="shape=umlLifeline;perimeter=lifelinePerimeter;whiteSpace=wrap;html=1;container=1;collapsible=0;recursiveResize=0;outlineConnect=0;fillColor=#f8cecc;strokeColor=#b85450;" vertex="1" parent="1">
          <mxGeometry x="340" y="100" width="100" height="1540" as="geometry" />
        </mxCell>
        <mxCell id="6two8OKGhvE6AskP43UC-5" value="dal" style="shape=umlLifeline;perimeter=lifelinePerimeter;whiteSpace=wrap;html=1;container=1;collapsible=0;recursiveResize=0;outlineConnect=0;fillColor=#f5f5f5;strokeColor=#666666;fontColor=#333333;" vertex="1" parent="1">
          <mxGeometry x="760" y="100" width="100" height="1540" as="geometry" />
        </mxCell>
        <mxCell id="6two8OKGhvE6AskP43UC-8" value="" style="html=1;points=[];perimeter=orthogonalPerimeter;" vertex="1" parent="6two8OKGhvE6AskP43UC-5">
          <mxGeometry x="45" y="90" width="10" height="80" as="geometry" />
        </mxCell>
        <mxCell id="6two8OKGhvE6AskP43UC-10" value="" style="html=1;points=[];perimeter=orthogonalPerimeter;" vertex="1" parent="6two8OKGhvE6AskP43UC-5">
          <mxGeometry x="40" y="220" width="10" height="40" as="geometry" />
        </mxCell>
        <mxCell id="6two8OKGhvE6AskP43UC-11" value="1.1 创建课程资源和对应的章节资源" style="edgeStyle=orthogonalEdgeStyle;html=1;align=left;spacingLeft=2;endArrow=block;rounded=0;entryX=1;entryY=0;" edge="1" target="6two8OKGhvE6AskP43UC-10" parent="6two8OKGhvE6AskP43UC-5" source="6two8OKGhvE6AskP43UC-8">
          <mxGeometry relative="1" as="geometry">
            <mxPoint x="45" y="200" as="sourcePoint" />
            <Array as="points">
              <mxPoint x="75" y="130" />
              <mxPoint x="75" y="220" />
            </Array>
          </mxGeometry>
        </mxCell>
        <mxCell id="6two8OKGhvE6AskP43UC-12" value="" style="html=1;points=[];perimeter=orthogonalPerimeter;" vertex="1" parent="6two8OKGhvE6AskP43UC-5">
          <mxGeometry x="45" y="300" width="10" height="80" as="geometry" />
        </mxCell>
        <mxCell id="6two8OKGhvE6AskP43UC-14" value="return" style="html=1;verticalAlign=bottom;endArrow=open;dashed=1;endSize=8;exitX=0;exitY=0.95;" edge="1" source="6two8OKGhvE6AskP43UC-12" parent="6two8OKGhvE6AskP43UC-5">
          <mxGeometry relative="1" as="geometry">
            <mxPoint x="-25" y="376" as="targetPoint" />
          </mxGeometry>
        </mxCell>
        <mxCell id="6two8OKGhvE6AskP43UC-15" value="" style="html=1;points=[];perimeter=orthogonalPerimeter;" vertex="1" parent="6two8OKGhvE6AskP43UC-5">
          <mxGeometry x="45" y="420" width="10" height="80" as="geometry" />
        </mxCell>
        <mxCell id="6two8OKGhvE6AskP43UC-18" value="" style="html=1;points=[];perimeter=orthogonalPerimeter;" vertex="1" parent="6two8OKGhvE6AskP43UC-5">
          <mxGeometry x="40" y="550" width="10" height="40" as="geometry" />
        </mxCell>
        <mxCell id="6two8OKGhvE6AskP43UC-19" value="3.1 创建课程和章节" style="edgeStyle=orthogonalEdgeStyle;html=1;align=left;spacingLeft=2;endArrow=block;rounded=0;entryX=1;entryY=0;exitX=1.3;exitY=0.538;exitDx=0;exitDy=0;exitPerimeter=0;" edge="1" target="6two8OKGhvE6AskP43UC-18" parent="6two8OKGhvE6AskP43UC-5" source="6two8OKGhvE6AskP43UC-15">
          <mxGeometry relative="1" as="geometry">
            <mxPoint x="45" y="530" as="sourcePoint" />
            <Array as="points">
              <mxPoint x="75" y="463" />
              <mxPoint x="75" y="550" />
            </Array>
          </mxGeometry>
        </mxCell>
        <mxCell id="6two8OKGhvE6AskP43UC-26" value="" style="html=1;points=[];perimeter=orthogonalPerimeter;" vertex="1" parent="6two8OKGhvE6AskP43UC-5">
          <mxGeometry x="45" y="660" width="10" height="60" as="geometry" />
        </mxCell>
        <mxCell id="6two8OKGhvE6AskP43UC-28" value="return" style="html=1;verticalAlign=bottom;endArrow=open;dashed=1;endSize=8;exitX=1;exitY=0.95;" edge="1" source="6two8OKGhvE6AskP43UC-26" parent="6two8OKGhvE6AskP43UC-5">
          <mxGeometry relative="1" as="geometry">
            <mxPoint x="115" y="717" as="targetPoint" />
          </mxGeometry>
        </mxCell>
        <mxCell id="6two8OKGhvE6AskP43UC-42" value="" style="html=1;points=[];perimeter=orthogonalPerimeter;" vertex="1" parent="6two8OKGhvE6AskP43UC-5">
          <mxGeometry x="45" y="990" width="10" height="80" as="geometry" />
        </mxCell>
        <mxCell id="6two8OKGhvE6AskP43UC-6" value="das" style="shape=umlLifeline;perimeter=lifelinePerimeter;whiteSpace=wrap;html=1;container=1;collapsible=0;recursiveResize=0;outlineConnect=0;fillColor=#f5f5f5;strokeColor=#666666;fontColor=#333333;" vertex="1" parent="1">
          <mxGeometry x="1010" y="100" width="100" height="1540" as="geometry" />
        </mxCell>
        <mxCell id="6two8OKGhvE6AskP43UC-44" value="" style="html=1;points=[];perimeter=orthogonalPerimeter;" vertex="1" parent="6two8OKGhvE6AskP43UC-6">
          <mxGeometry x="45" y="1140" width="10" height="80" as="geometry" />
        </mxCell>
        <mxCell id="6two8OKGhvE6AskP43UC-46" value="return" style="html=1;verticalAlign=bottom;endArrow=open;dashed=1;endSize=8;exitX=0;exitY=0.95;" edge="1" source="6two8OKGhvE6AskP43UC-44" parent="6two8OKGhvE6AskP43UC-6">
          <mxGeometry relative="1" as="geometry">
            <mxPoint x="-25" y="1216" as="targetPoint" />
          </mxGeometry>
        </mxCell>
        <mxCell id="6two8OKGhvE6AskP43UC-7" value="排课" style="shape=umlLifeline;perimeter=lifelinePerimeter;whiteSpace=wrap;html=1;container=1;collapsible=0;recursiveResize=0;outlineConnect=0;fillColor=#f5f5f5;strokeColor=#666666;fontColor=#333333;" vertex="1" parent="1">
          <mxGeometry x="1260" y="100" width="100" height="1520" as="geometry" />
        </mxCell>
        <mxCell id="6two8OKGhvE6AskP43UC-23" value="" style="html=1;points=[];perimeter=orthogonalPerimeter;" vertex="1" parent="6two8OKGhvE6AskP43UC-7">
          <mxGeometry x="45" y="610" width="10" height="250" as="geometry" />
        </mxCell>
        <mxCell id="6two8OKGhvE6AskP43UC-37" value="" style="html=1;points=[];perimeter=orthogonalPerimeter;" vertex="1" parent="6two8OKGhvE6AskP43UC-7">
          <mxGeometry x="40" y="910" width="10" height="40" as="geometry" />
        </mxCell>
        <mxCell id="6two8OKGhvE6AskP43UC-38" value="4.4 排班计算&amp;amp;记录数据" style="edgeStyle=orthogonalEdgeStyle;html=1;align=left;spacingLeft=2;endArrow=block;rounded=0;entryX=1;entryY=0;" edge="1" target="6two8OKGhvE6AskP43UC-37" parent="6two8OKGhvE6AskP43UC-7" source="6two8OKGhvE6AskP43UC-23">
          <mxGeometry relative="1" as="geometry">
            <mxPoint x="45" y="890" as="sourcePoint" />
            <Array as="points">
              <mxPoint x="75" y="835" />
              <mxPoint x="75" y="910" />
            </Array>
          </mxGeometry>
        </mxCell>
        <mxCell id="6two8OKGhvE6AskP43UC-9" value="1. 创建课程资源" style="html=1;verticalAlign=bottom;startArrow=oval;endArrow=block;startSize=8;" edge="1" target="6two8OKGhvE6AskP43UC-8" parent="1" source="6two8OKGhvE6AskP43UC-3">
          <mxGeometry relative="1" as="geometry">
            <mxPoint x="240" y="200" as="sourcePoint" />
            <Array as="points">
              <mxPoint x="260" y="190" />
            </Array>
          </mxGeometry>
        </mxCell>
        <mxCell id="6two8OKGhvE6AskP43UC-13" value="2. 获取可用课程资源" style="html=1;verticalAlign=bottom;endArrow=block;entryX=0;entryY=0;" edge="1" target="6two8OKGhvE6AskP43UC-12" parent="1" source="6two8OKGhvE6AskP43UC-4">
          <mxGeometry relative="1" as="geometry">
            <mxPoint x="735" y="400" as="sourcePoint" />
          </mxGeometry>
        </mxCell>
        <mxCell id="6two8OKGhvE6AskP43UC-16" value="3. 创建课程" style="html=1;verticalAlign=bottom;startArrow=oval;endArrow=block;startSize=8;" edge="1" target="6two8OKGhvE6AskP43UC-15" parent="1" source="6two8OKGhvE6AskP43UC-4">
          <mxGeometry relative="1" as="geometry">
            <mxPoint x="745" y="520" as="sourcePoint" />
          </mxGeometry>
        </mxCell>
        <mxCell id="6two8OKGhvE6AskP43UC-17" value="家长" style="shape=umlLifeline;perimeter=lifelinePerimeter;whiteSpace=wrap;html=1;container=1;collapsible=0;recursiveResize=0;outlineConnect=0;fillColor=#ffe6cc;strokeColor=#d79b00;" vertex="1" parent="1">
          <mxGeometry x="-70" y="100" width="100" height="1540" as="geometry" />
        </mxCell>
        <mxCell id="6two8OKGhvE6AskP43UC-24" value="4. 排班" style="html=1;verticalAlign=bottom;endArrow=block;entryX=0;entryY=0;" edge="1" target="6two8OKGhvE6AskP43UC-23" parent="1" source="6two8OKGhvE6AskP43UC-4">
          <mxGeometry relative="1" as="geometry">
            <mxPoint x="1235" y="710" as="sourcePoint" />
          </mxGeometry>
        </mxCell>
        <mxCell id="6two8OKGhvE6AskP43UC-27" value="4.1 查询待排班课程" style="html=1;verticalAlign=bottom;endArrow=block;entryX=1;entryY=0;" edge="1" target="6two8OKGhvE6AskP43UC-26" parent="1" source="6two8OKGhvE6AskP43UC-7">
          <mxGeometry relative="1" as="geometry">
            <mxPoint x="875" y="760" as="sourcePoint" />
          </mxGeometry>
        </mxCell>
        <mxCell id="6two8OKGhvE6AskP43UC-29" value="教室管理" style="shape=umlLifeline;perimeter=lifelinePerimeter;whiteSpace=wrap;html=1;container=1;collapsible=0;recursiveResize=0;outlineConnect=0;fillColor=#f5f5f5;strokeColor=#666666;fontColor=#333333;" vertex="1" parent="1">
          <mxGeometry x="1440" y="100" width="100" height="1530" as="geometry" />
        </mxCell>
        <mxCell id="6two8OKGhvE6AskP43UC-31" value="" style="html=1;points=[];perimeter=orthogonalPerimeter;" vertex="1" parent="6two8OKGhvE6AskP43UC-29">
          <mxGeometry x="45" y="680" width="10" height="80" as="geometry" />
        </mxCell>
        <mxCell id="6two8OKGhvE6AskP43UC-33" value="return" style="html=1;verticalAlign=bottom;endArrow=open;dashed=1;endSize=8;exitX=0;exitY=0.95;" edge="1" source="6two8OKGhvE6AskP43UC-31" parent="6two8OKGhvE6AskP43UC-29">
          <mxGeometry relative="1" as="geometry">
            <mxPoint x="-25" y="756" as="targetPoint" />
          </mxGeometry>
        </mxCell>
        <mxCell id="6two8OKGhvE6AskP43UC-30" value="智课组织关系" style="shape=umlLifeline;perimeter=lifelinePerimeter;whiteSpace=wrap;html=1;container=1;collapsible=0;recursiveResize=0;outlineConnect=0;fillColor=#d5e8d4;strokeColor=#82b366;" vertex="1" parent="1">
          <mxGeometry x="1610" y="100" width="100" height="1530" as="geometry" />
        </mxCell>
        <mxCell id="6two8OKGhvE6AskP43UC-34" value="" style="html=1;points=[];perimeter=orthogonalPerimeter;" vertex="1" parent="6two8OKGhvE6AskP43UC-30">
          <mxGeometry x="45" y="780" width="10" height="80" as="geometry" />
        </mxCell>
        <mxCell id="6two8OKGhvE6AskP43UC-36" value="return" style="html=1;verticalAlign=bottom;endArrow=open;dashed=1;endSize=8;exitX=0;exitY=0.95;" edge="1" source="6two8OKGhvE6AskP43UC-34" parent="6two8OKGhvE6AskP43UC-30">
          <mxGeometry relative="1" as="geometry">
            <mxPoint x="-25" y="856" as="targetPoint" />
          </mxGeometry>
        </mxCell>
        <mxCell id="6two8OKGhvE6AskP43UC-32" value="4.2 查询可用教室" style="html=1;verticalAlign=bottom;endArrow=block;entryX=0;entryY=0;" edge="1" target="6two8OKGhvE6AskP43UC-31" parent="1" source="6two8OKGhvE6AskP43UC-7">
          <mxGeometry relative="1" as="geometry">
            <mxPoint x="1415" y="780" as="sourcePoint" />
          </mxGeometry>
        </mxCell>
        <mxCell id="6two8OKGhvE6AskP43UC-35" value="4.3 查询符合条件教师" style="html=1;verticalAlign=bottom;endArrow=block;entryX=0;entryY=0;" edge="1" target="6two8OKGhvE6AskP43UC-34" parent="1" source="6two8OKGhvE6AskP43UC-7">
          <mxGeometry relative="1" as="geometry">
            <mxPoint x="1585" y="880" as="sourcePoint" />
          </mxGeometry>
        </mxCell>
        <mxCell id="6two8OKGhvE6AskP43UC-43" value="5. 课程上架" style="html=1;verticalAlign=bottom;startArrow=oval;endArrow=block;startSize=8;" edge="1" target="6two8OKGhvE6AskP43UC-42" parent="1" source="6two8OKGhvE6AskP43UC-4">
          <mxGeometry relative="1" as="geometry">
            <mxPoint x="745" y="1090" as="sourcePoint" />
          </mxGeometry>
        </mxCell>
        <mxCell id="6two8OKGhvE6AskP43UC-45" value="6. 学生购买课程" style="html=1;verticalAlign=bottom;endArrow=block;entryX=0;entryY=0;" edge="1" target="6two8OKGhvE6AskP43UC-44" parent="1" source="6two8OKGhvE6AskP43UC-17">
          <mxGeometry relative="1" as="geometry">
            <mxPoint x="985" y="1240" as="sourcePoint" />
          </mxGeometry>
        </mxCell>
        <mxCell id="6two8OKGhvE6AskP43UC-47" value="" style="verticalLabelPosition=bottom;verticalAlign=top;html=1;shape=mxgraph.basic.patternFillRect;fillStyle=diag;step=5;fillStrokeWidth=0.2;fillStrokeColor=#dddddd;opacity=30;" vertex="1" parent="1">
          <mxGeometry x="707" y="70" width="863" height="90" as="geometry" />
        </mxCell>
        <mxCell id="6two8OKGhvE6AskP43UC-48" value="课程管理系统" style="text;html=1;align=center;verticalAlign=middle;resizable=0;points=[];autosize=1;strokeColor=none;fillColor=none;" vertex="1" parent="1">
          <mxGeometry x="1093.5" y="40" width="90" height="20" as="geometry" />
        </mxCell>
      </root>
    </mxGraphModel>
  </diagram>
</mxfile>
